<?xml version="1.0" encoding="UTF-8"?>
<!DOCTYPE svg PUBLIC "-//W3C//DTD SVG 1.1//EN" "http://www.w3.org/Graphics/SVG/1.1/DTD/svg11.dtd">
<!-- Creator: CorelDRAW 2017 -->
<svg xmlns="http://www.w3.org/2000/svg" xml:space="preserve" width="680px" height="453px" version="1.1" style="shape-rendering:geometricPrecision; text-rendering:geometricPrecision; image-rendering:optimizeQuality; fill-rule:evenodd; clip-rule:evenodd"
viewBox="0 0 680 453.33"
 xmlns:xlink="http://www.w3.org/1999/xlink">
 <defs>
  <style type="text/css">
   <![CDATA[
    .fil1 {fill:#B7B7B7;fill-rule:nonzero}
    .fil0 {fill:#E11C3A;fill-rule:nonzero}
   ]]>
  </style>
 </defs>
 <g id="Слой_x0020_1">
  <metadata id="CorelCorpID_0Corel-Layer"/>
  <path class="fil0" d="M385.39 92.44c-37.38,0 -57.77,-9.54 -57.77,-14.44l0 -13.2c11.88,7.34 34.91,11.13 57.77,11.13 22.87,0 45.9,-3.79 57.78,-11.13l0 13.2c0,4.9 -20.39,14.44 -57.78,14.44zm0 -78.41c37.39,0 57.78,9.55 57.78,14.45 0,4.9 -20.39,14.44 -57.78,14.44 -37.38,0 -57.77,-9.54 -57.77,-14.44 0,-4.9 20.39,-14.45 57.77,-14.45zm57.78 39.21c0,4.9 -20.39,14.44 -57.78,14.44 -37.38,0 -57.77,-9.54 -57.77,-14.44l0 -13.2c11.88,7.34 34.91,11.14 57.77,11.14 22.87,0 45.9,-3.8 57.78,-11.14l0 13.2zm-90.79 70.16c0,4.9 -20.39,14.44 -57.78,14.44 -37.38,0 -57.77,-9.54 -57.77,-14.44 0,-4.91 20.39,-14.45 57.77,-14.45 37.39,0 57.78,9.54 57.78,14.45zm-57.78 89.23c-35.84,0 -57.77,-9.68 -57.77,-14.95l0 -13.2c11.88,7.33 34.91,11.13 57.77,11.13 22.87,0 45.9,-3.8 57.78,-11.13l0 14.23c0,4.86 -19.85,13.92 -57.78,13.92zm57.78 -64.47c0,4.9 -20.39,14.44 -57.78,14.44 -37.38,0 -57.77,-9.54 -57.77,-14.44l0 -13.2c11.88,7.33 34.91,11.13 57.77,11.13 22.87,0 45.9,-3.8 57.78,-11.13l0 13.2zm0 24.76c0,4.9 -20.39,14.44 -57.78,14.44 -37.38,0 -57.77,-9.54 -57.77,-14.44l0 -13.2c11.88,7.33 34.91,11.13 57.77,11.13 22.87,0 45.9,-3.8 57.78,-11.13l0 13.2zm99.04 -144.44c0,-14.9 -33.22,-22.7 -66.03,-22.7 -32.81,0 -66.02,7.8 -66.02,22.7 0,0.42 0.12,0.81 0.17,1.22 -0.07,0.28 -0.17,0.54 -0.17,0.84l0 71.7c-7.91,-1.02 -16.35,-1.54 -24.77,-1.54 -28.8,0 -57.89,6 -64.58,17.55 -0.86,0.76 -1.44,1.84 -1.44,3.08l0 76.35c0,15.07 34.01,23.21 66.02,23.21 31.81,0 66.03,-6.94 66.03,-22.18l0 -77.38c0,-1.24 -0.57,-2.32 -1.44,-3.08 -4.03,-6.96 -16.23,-11.88 -31.57,-14.72l0 -13.97c11.88,7.34 34.91,11.14 57.77,11.14 22.87,0 45.9,-3.8 57.78,-11.14l0 13.2c0,4.9 -20.39,14.44 -57.78,14.44 -5.2,0 -10.37,-0.2 -15.37,-0.59 -2.31,-0.17 -4.26,1.53 -4.44,3.8 -0.18,2.27 1.52,4.26 3.79,4.44 5.22,0.4 10.61,0.61 16.02,0.61 22.87,0 45.9,-3.8 57.78,-11.14l0 13.2c0,4.9 -20.39,14.44 -57.78,14.44 -4.96,0 -9.87,-0.17 -14.58,-0.52 -2.37,-0.2 -4.25,1.53 -4.42,3.8 -0.17,2.28 1.53,4.25 3.8,4.42 4.93,0.37 10.04,0.56 15.2,0.56 22.87,0 45.9,-3.8 57.78,-11.14l0 14.23c0,4.86 -19.85,13.93 -57.78,13.93 -4.88,0 -9.75,-0.19 -14.49,-0.55 -2.33,-0.18 -4.25,1.52 -4.43,3.79 -0.18,2.28 1.52,4.26 3.8,4.44 4.94,0.38 10.03,0.57 15.12,0.57 31.8,0 66.03,-6.94 66.03,-22.18l0 -122.77c0,-0.3 -0.1,-0.56 -0.17,-0.84 0.05,-0.41 0.17,-0.8 0.17,-1.22z"/>
  <path class="fil0" d="M576.41 97.64l36.9 -36.91c1.64,-1.64 4.29,-1.64 5.93,0 1.64,1.65 1.64,4.3 0,5.94l-62.32 62.35 0 0 -36.89 36.91c-1.64,1.64 -4.3,1.64 -5.94,0 -1.64,-1.64 -1.64,-4.29 0,-5.94l62.32 -62.35 0 0zm-118.83 19.84c2.31,0 4.18,-1.28 4.16,-3.6l-0.01 -0.62c0,-3.64 0.18,-7.3 0.55,-10.86 0.24,-2.31 -1.44,-4.41 -3.75,-4.65 -2.31,-0.17 -4.36,1.36 -4.6,3.67 -0.4,3.84 -0.6,7.61 -0.6,11.53l0.01 1.02c0.02,2.31 1.9,3.51 4.2,3.51 0.01,0 0.02,0 0.04,0zm71.78 -21.11c-9.84,0 -17.84,-8.01 -17.84,-17.85 0,-9.84 8,-17.85 17.84,-17.85 9.84,0 17.84,8.01 17.84,17.85 0,9.84 -8,17.85 -17.84,17.85zm26.24 -17.85c0,-14.47 -11.77,-26.24 -26.24,-26.24 -14.46,0 -26.23,11.77 -26.23,26.24 0,14.47 11.77,26.25 26.23,26.25 14.47,0 26.24,-11.78 26.24,-26.25zm48.37 87.47c-9.84,0 -17.84,-8.01 -17.84,-17.85 0,-9.83 8,-17.84 17.84,-17.84 9.84,0 17.84,8.01 17.84,17.84 0,9.84 -8,17.85 -17.84,17.85zm26.23 -17.85c0,-14.47 -11.77,-26.24 -26.23,-26.24 -14.46,0 -26.23,11.77 -26.23,26.24 0,14.48 11.77,26.25 26.23,26.25 14.46,0 26.23,-11.77 26.23,-26.25zm-19.52 60.48c-3.65,1.68 -7.43,3.18 -11.25,4.43 -2.21,0.72 -3.41,3.1 -2.68,5.3 0.58,1.77 2.22,2.89 3.98,2.89 0.44,0 0.88,-0.07 1.31,-0.21 4.13,-1.36 8.22,-2.97 12.16,-4.79 2.11,-0.98 3.03,-3.48 2.05,-5.58 -0.97,-2.1 -3.47,-3.03 -5.57,-2.04zm-58.27 8.69c-4.01,-0.55 -8,-1.33 -11.88,-2.33 -2.23,-0.56 -4.53,0.78 -5.11,3.03 -0.57,2.24 0.78,4.53 3.02,5.11 4.2,1.08 8.51,1.92 12.83,2.51 0.2,0.02 0.39,0.04 0.58,0.04 2.06,0 3.87,-1.54 4.15,-3.64 0.31,-2.3 -1.3,-4.41 -3.59,-4.72zm29.77 -0.18c-3.98,0.59 -8.04,0.96 -12.06,1.09 -2.32,0.08 -4.13,2.04 -4.06,4.35 0.08,2.27 1.94,4.1 4.19,4.1 0.05,0 0.1,0 0.15,0 4.34,0 8.72,-0.57 13.01,-1.2 2.29,-0.34 3.87,-2.5 3.53,-4.8 -0.34,-2.29 -2.42,-3.86 -4.76,-3.54zm-58.39 -8c-3.66,-1.64 -7.27,-3.53 -10.74,-5.58 -1.99,-1.19 -4.57,-0.53 -5.75,1.46 -1.19,1.99 -0.53,4.57 1.46,5.76 3.74,2.22 7.64,4.25 11.6,6.02 0.56,0.26 1.14,0.37 1.71,0.37 1.61,0 3.14,-0.92 3.84,-2.48 0.95,-2.11 0,-4.6 -2.12,-5.55zm137.09 -40.55c-1.96,-1.26 -4.55,-0.68 -5.8,1.27 -2.18,3.4 -4.57,6.69 -7.11,9.8 -1.46,1.79 -1.2,4.44 0.6,5.91 0.77,0.63 1.72,0.95 2.65,0.95 1.22,0 2.42,-0.52 3.25,-1.54 2.74,-3.36 5.33,-6.91 7.68,-10.58 1.25,-1.96 0.68,-4.56 -1.27,-5.81zm-37.47 -153.47c-3.75,-2.18 -7.68,-4.16 -11.67,-5.89 -2.12,-0.94 -4.6,0.05 -5.52,2.18 -0.92,2.13 0.05,4.6 2.18,5.52 3.69,1.61 7.33,3.44 10.8,5.46 0.66,0.38 1.39,0.56 2.1,0.56 1.45,0 2.86,-0.74 3.64,-2.09 1.16,-2.01 0.48,-4.58 -1.53,-5.74zm56.56 95.46c-0.05,-2.32 -2.04,-4.22 -4.29,-4.1 -2.33,0.06 -4.16,1.99 -4.1,4.3 0.02,0.84 0.02,1.67 0.02,2.51 0,4.05 -0.23,8.12 -0.68,12.09 -0.27,2.31 1.38,4.39 3.69,4.65 0.16,0.02 0.32,0.03 0.48,0.03 2.1,0 3.92,-1.58 4.16,-3.72 0.5,-4.29 0.75,-8.68 0.75,-13.05 0,-0.9 -0.01,-1.81 -0.03,-2.71zm-172.74 -88.98c-1.34,-1.89 -3.95,-2.34 -5.85,-1 -3.55,2.51 -7,5.25 -10.22,8.13 -1.72,1.55 -1.88,4.21 -0.33,5.93 0.83,0.93 1.98,1.4 3.13,1.4 1,0 2,-0.35 2.8,-1.07 2.98,-2.67 6.17,-5.21 9.47,-7.53 1.89,-1.34 2.34,-3.96 1,-5.86zm141.43 13.42c-3,-3.15 -6.21,-6.15 -9.55,-8.93 -1.78,-1.48 -4.44,-1.24 -5.91,0.54 -1.48,1.79 -1.24,4.44 0.54,5.92 3.09,2.57 6.06,5.35 8.84,8.27 0.83,0.86 1.93,1.3 3.04,1.3 1.04,0 2.09,-0.39 2.9,-1.16 1.67,-1.6 1.74,-4.26 0.14,-5.94zm-13.02 157.39c-3.04,2.66 -6.26,5.16 -9.56,7.42 -1.91,1.32 -2.39,3.93 -1.08,5.84 0.82,1.19 2.13,1.83 3.47,1.83 0.82,0 1.64,-0.24 2.37,-0.74 3.56,-2.45 7.03,-5.15 10.32,-8.02 1.74,-1.52 1.92,-4.17 0.4,-5.92 -1.53,-1.75 -4.18,-1.93 -5.92,-0.41zm36.98 -52.5c-2.24,-0.65 -4.56,0.63 -5.21,2.86 -1.12,3.84 -2.49,7.68 -4.06,11.4 -0.9,2.14 0.09,4.6 2.23,5.5 0.53,0.23 1.09,0.33 1.63,0.33 1.64,0 3.19,-0.96 3.87,-2.56 1.7,-4.01 3.18,-8.17 4.39,-12.32 0.65,-2.23 -0.63,-4.56 -2.85,-5.21zm-182.73 44.94c-1.59,-1.69 -4.24,-1.79 -5.94,-0.2 -1.69,1.58 -1.78,4.24 -0.2,5.94 2.97,3.17 6.14,6.22 9.44,9.03 0.79,0.67 1.76,1 2.72,1 1.19,0 2.37,-0.5 3.19,-1.48 1.51,-1.76 1.3,-4.41 -0.47,-5.92 -3.05,-2.6 -5.99,-5.42 -8.74,-8.37zm89.8 -175.75c4.01,0.5 8.02,1.23 11.9,2.19 0.33,0.08 0.66,0.11 1,0.11 1.88,0 3.6,-1.28 4.07,-3.2 0.55,-2.25 -0.83,-4.52 -3.08,-5.07 -4.2,-1.03 -8.52,-1.82 -12.86,-2.36 -2.31,-0.32 -4.4,1.35 -4.68,3.65 -0.29,2.3 1.35,4.4 3.65,4.68zm86.99 72.31c1.22,3.83 2.22,7.77 2.99,11.72 0.39,2.01 2.15,3.4 4.12,3.4 0.27,0 0.53,-0.02 0.8,-0.07 2.28,-0.45 3.76,-2.65 3.32,-4.93 -0.82,-4.27 -1.91,-8.53 -3.23,-12.66 -0.71,-2.22 -3.07,-3.44 -5.27,-2.73 -2.21,0.7 -3.43,3.07 -2.73,5.27zm-146.97 -62.51c0.61,0 1.22,-0.13 1.8,-0.4 3.63,-1.74 7.4,-3.28 11.2,-4.57 2.19,-0.75 3.36,-3.14 2.61,-5.34 -0.74,-2.19 -3.14,-3.37 -5.32,-2.61 -4.11,1.4 -8.18,3.06 -12.1,4.94 -2.09,1 -2.98,3.5 -1.98,5.6 0.72,1.5 2.22,2.38 3.79,2.38zm140.18 46.13c0.74,1.45 2.2,2.27 3.73,2.27 0.64,0 1.31,-0.15 1.92,-0.47 2.06,-1.07 2.86,-3.6 1.79,-5.66 -1.98,-3.85 -4.23,-7.63 -6.66,-11.24 -1.3,-1.92 -3.91,-2.42 -5.83,-1.13 -1.92,1.3 -2.43,3.91 -1.13,5.83 2.25,3.34 4.33,6.84 6.18,10.4zm-110.64 -55.34c0.22,0 0.44,-0.02 0.67,-0.06 3.97,-0.63 8.02,-1.04 12.04,-1.23 2.31,-0.1 4.11,-2.06 4.01,-4.38 -0.1,-2.32 -2.21,-4.08 -4.38,-4.01 -4.34,0.2 -8.72,0.65 -13,1.33 -2.29,0.37 -3.85,2.52 -3.48,4.81 0.32,2.07 2.11,3.54 4.14,3.54zm-77.45 49.43c0.69,0.43 1.46,0.64 2.22,0.64 1.4,0 2.77,-0.7 3.56,-1.98 2.14,-3.42 4.49,-6.75 6.99,-9.88 1.44,-1.81 1.15,-4.45 -0.66,-5.9 -1.81,-1.45 -4.45,-1.15 -5.9,0.66 -2.71,3.39 -5.24,6.98 -7.55,10.67 -1.23,1.97 -0.63,4.56 1.34,5.79zm1.08 101.32c-1.05,-2.08 -3.58,-2.91 -5.64,-1.87 -2.07,1.04 -2.91,3.57 -1.86,5.64 1.95,3.88 4.14,7.68 6.53,11.31 0.81,1.23 2.15,1.9 3.51,1.9 0.79,0 1.6,-0.23 2.31,-0.7 1.93,-1.27 2.47,-3.87 1.2,-5.81 -2.21,-3.36 -4.25,-6.89 -6.05,-10.47zm-6.61 -16.47c-1.16,-3.83 -2.12,-7.79 -2.85,-11.76 -0.41,-2.29 -2.6,-3.82 -4.88,-3.38 -2.28,0.41 -3.79,2.6 -3.37,4.88 0.77,4.29 1.81,8.57 3.08,12.71 0.55,1.8 2.21,2.97 4.01,2.97 0.41,0 0.82,-0.06 1.23,-0.18 2.21,-0.68 3.46,-3.03 2.78,-5.24zm-5.86 -56.03c0.37,0.1 0.75,0.15 1.13,0.15 1.83,0 3.52,-1.21 4.03,-3.07 1.09,-3.87 2.4,-7.73 3.93,-11.45 0.88,-2.15 -0.16,-4.6 -2.3,-5.48 -2.13,-0.88 -4.6,0.15 -5.48,2.3 -1.64,4.02 -3.06,8.19 -4.23,12.37 -0.62,2.24 0.68,4.55 2.92,5.18z"/>
  <path class="fil0" d="M183.59 109.62c-1.62,-2.42 -1.62,-6.83 0,-9.25l24.1 -36.15c2.09,-3.14 2.46,-6.48 1.03,-9.18 -1.45,-2.69 -4.44,-4.24 -8.21,-4.24l-50.03 0c-2.3,0 -4.16,1.87 -4.16,4.17 0,2.3 1.86,4.17 4.16,4.17l50.03 0c0.19,0 0.36,0.01 0.5,0.03 -0.07,0.12 -0.15,0.27 -0.26,0.42l-24.1 36.16c-3.46,5.18 -3.46,13.31 0,18.5l24.1 36.15c0.11,0.15 0.19,0.3 0.26,0.43 -0.14,0.01 -0.31,0.02 -0.5,0.02l-87.54 0 16.68 -12.51c4.75,-3.56 8.33,-10.73 8.33,-16.67l0 -95.88c0,-6.89 -5.61,-12.5 -12.51,-12.5l-100.05 0 0 -8.34c0,-2.3 -1.86,-4.17 -4.16,-4.17 -2.31,0 -4.17,1.87 -4.17,4.17l0 216.77c0,2.3 1.86,4.17 4.17,4.17 2.3,0 4.16,-1.87 4.16,-4.17l0 -91.71 83.38 0c2.3,0 4.17,-1.87 4.17,-4.17 0,-2.3 -1.87,-4.17 -4.17,-4.17l-83.38 0 0 -100.05 100.05 0c2.3,0 4.17,1.87 4.17,4.17l0 95.88c0,3.27 -2.38,8.04 -5,10.01l-20.02 15c-4.48,3.37 -4.25,6.58 -3.71,8.19 0.54,1.61 2.28,4.32 7.89,4.32l91.71 0c3.77,0 6.76,-1.55 8.21,-4.24 1.43,-2.7 1.06,-6.04 -1.03,-9.18l-24.1 -36.15z"/>
  <path class="fil1" d="M385.39 319.11c-37.38,0 -57.77,-9.54 -57.77,-14.44l0 -13.2c11.88,7.34 34.91,11.13 57.77,11.13 22.87,0 45.9,-3.79 57.78,-11.13l0 13.2c0,4.9 -20.39,14.44 -57.78,14.44zm0 -78.41c37.39,0 57.78,9.55 57.78,14.45 0,4.9 -20.39,14.44 -57.78,14.44 -37.38,0 -57.77,-9.54 -57.77,-14.44 0,-4.9 20.39,-14.45 57.77,-14.45zm57.78 39.21c0,4.9 -20.39,14.44 -57.78,14.44 -37.38,0 -57.77,-9.54 -57.77,-14.44l0 -13.2c11.88,7.34 34.91,11.13 57.77,11.13 22.87,0 45.9,-3.79 57.78,-11.13l0 13.2zm-90.79 70.15c0,4.9 -20.39,14.44 -57.78,14.44 -37.38,0 -57.77,-9.54 -57.77,-14.44 0,-4.9 20.39,-14.44 57.77,-14.44 37.39,0 57.78,9.54 57.78,14.44zm-57.78 89.24c-35.84,0 -57.77,-9.69 -57.77,-14.96l0 -13.2c11.88,7.34 34.91,11.14 57.77,11.14 22.87,0 45.9,-3.8 57.78,-11.14l0 14.23c0,4.86 -19.85,13.93 -57.78,13.93zm57.78 -64.48c0,4.9 -20.39,14.44 -57.78,14.44 -37.38,0 -57.77,-9.54 -57.77,-14.44l0 -13.2c11.88,7.34 34.91,11.14 57.77,11.14 22.87,0 45.9,-3.8 57.78,-11.14l0 13.2zm0 24.77c0,4.89 -20.39,14.43 -57.78,14.43 -37.38,0 -57.77,-9.54 -57.77,-14.43l0 -13.21c11.88,7.34 34.91,11.14 57.77,11.14 22.87,0 45.9,-3.8 57.78,-11.14l0 13.21zm99.04 -144.44c0,-14.9 -33.22,-22.7 -66.03,-22.7 -32.81,0 -66.02,7.8 -66.02,22.7 0,0.42 0.12,0.8 0.17,1.21 -0.07,0.28 -0.17,0.55 -0.17,0.85l0 71.69c-7.91,-1.01 -16.35,-1.54 -24.77,-1.54 -28.8,0 -57.89,6.01 -64.58,17.56 -0.86,0.76 -1.44,1.83 -1.44,3.08l0 76.34c0,15.08 34.01,23.21 66.02,23.21 31.81,0 66.03,-6.94 66.03,-22.18l0 -77.37c0,-1.25 -0.57,-2.32 -1.44,-3.08 -4.03,-6.96 -16.23,-11.89 -31.57,-14.72l0 -13.97c11.88,7.34 34.91,11.13 57.77,11.13 22.87,0 45.9,-3.79 57.78,-11.13l0 13.2c0,4.9 -20.39,14.44 -57.78,14.44 -5.2,0 -10.37,-0.2 -15.37,-0.59 -2.31,-0.17 -4.26,1.53 -4.44,3.79 -0.18,2.28 1.52,4.27 3.79,4.44 5.22,0.41 10.61,0.61 16.02,0.61 22.87,0 45.9,-3.79 57.78,-11.13l0 13.2c0,4.9 -20.39,14.44 -57.78,14.44 -4.96,0 -9.87,-0.18 -14.58,-0.53 -2.37,-0.2 -4.25,1.54 -4.42,3.81 -0.17,2.27 1.53,4.25 3.8,4.42 4.93,0.37 10.04,0.55 15.2,0.55 22.87,0 45.9,-3.79 57.78,-11.13l0 14.23c0,4.86 -19.85,13.93 -57.78,13.93 -4.88,0 -9.75,-0.19 -14.49,-0.56 -2.33,-0.17 -4.25,1.53 -4.43,3.8 -0.18,2.27 1.52,4.25 3.8,4.43 4.94,0.39 10.03,0.58 15.12,0.58 31.8,0 66.03,-6.94 66.03,-22.18l0 -122.77c0,-0.3 -0.1,-0.57 -0.17,-0.85 0.05,-0.41 0.17,-0.79 0.17,-1.21z"/>
  <path class="fil1" d="M576.41 324.31l36.9 -36.91c1.64,-1.64 4.29,-1.64 5.93,0 1.64,1.64 1.64,4.3 0,5.94l-62.32 62.35 0 0 -36.89 36.91c-1.64,1.64 -4.3,1.64 -5.94,0 -1.64,-1.64 -1.64,-4.3 0,-5.94l62.32 -62.35 0 0zm-118.83 19.84c2.31,0 4.18,-1.28 4.16,-3.6l-0.01 -0.62c0,-3.64 0.18,-7.31 0.55,-10.86 0.24,-2.31 -1.44,-4.42 -3.75,-4.65 -2.31,-0.17 -4.36,1.36 -4.6,3.66 -0.4,3.85 -0.6,7.62 -0.6,11.54l0.01 1.02c0.02,2.31 1.9,3.51 4.2,3.51 0.01,0 0.02,0 0.04,0zm71.78 -21.11c-9.84,0 -17.84,-8.01 -17.84,-17.85 0,-9.84 8,-17.85 17.84,-17.85 9.84,0 17.84,8.01 17.84,17.85 0,9.84 -8,17.85 -17.84,17.85zm26.24 -17.85c0,-14.47 -11.77,-26.25 -26.24,-26.25 -14.46,0 -26.23,11.78 -26.23,26.25 0,14.47 11.77,26.25 26.23,26.25 14.47,0 26.24,-11.78 26.24,-26.25zm48.37 87.47c-9.84,0 -17.84,-8.01 -17.84,-17.85 0,-9.84 8,-17.85 17.84,-17.85 9.84,0 17.84,8.01 17.84,17.85 0,9.84 -8,17.85 -17.84,17.85zm26.23 -17.85c0,-14.47 -11.77,-26.25 -26.23,-26.25 -14.46,0 -26.23,11.78 -26.23,26.25 0,14.47 11.77,26.25 26.23,26.25 14.46,0 26.23,-11.78 26.23,-26.25zm-19.52 60.47c-3.65,1.69 -7.43,3.18 -11.25,4.44 -2.21,0.72 -3.41,3.09 -2.68,5.3 0.58,1.77 2.22,2.89 3.98,2.89 0.44,0 0.88,-0.07 1.31,-0.21 4.13,-1.36 8.22,-2.97 12.16,-4.79 2.11,-0.98 3.03,-3.48 2.05,-5.58 -0.97,-2.11 -3.47,-3.03 -5.57,-2.05zm-58.27 8.69c-4.01,-0.54 -8,-1.32 -11.88,-2.32 -2.23,-0.57 -4.53,0.77 -5.11,3.02 -0.57,2.25 0.78,4.54 3.02,5.11 4.2,1.08 8.51,1.93 12.83,2.52 0.2,0.02 0.39,0.03 0.58,0.03 2.06,0 3.87,-1.53 4.15,-3.63 0.31,-2.3 -1.3,-4.42 -3.59,-4.73zm29.77 -0.17c-3.98,0.59 -8.04,0.96 -12.06,1.09 -2.32,0.08 -4.13,2.03 -4.06,4.35 0.08,2.27 1.94,4.09 4.19,4.09 0.05,0 0.1,0 0.15,0 4.34,0 8.72,-0.56 13.01,-1.19 2.29,-0.34 3.87,-2.51 3.53,-4.8 -0.34,-2.29 -2.42,-3.86 -4.76,-3.54zm-58.39 -8c-3.66,-1.64 -7.27,-3.53 -10.74,-5.59 -1.99,-1.19 -4.57,-0.52 -5.75,1.47 -1.19,1.99 -0.53,4.57 1.46,5.75 3.74,2.23 7.64,4.26 11.6,6.03 0.56,0.25 1.14,0.37 1.71,0.37 1.61,0 3.14,-0.92 3.84,-2.48 0.95,-2.12 0,-4.6 -2.12,-5.55zm137.09 -40.55c-1.96,-1.26 -4.55,-0.69 -5.8,1.27 -2.18,3.4 -4.57,6.69 -7.11,9.8 -1.46,1.79 -1.2,4.44 0.6,5.91 0.77,0.63 1.72,0.95 2.65,0.95 1.22,0 2.42,-0.53 3.25,-1.55 2.74,-3.35 5.33,-6.91 7.68,-10.58 1.25,-1.95 0.68,-4.55 -1.27,-5.8zm-37.47 -153.47c-3.75,-2.18 -7.68,-4.16 -11.67,-5.89 -2.12,-0.94 -4.6,0.05 -5.52,2.18 -0.92,2.12 0.05,4.6 2.18,5.52 3.69,1.61 7.33,3.44 10.8,5.46 0.66,0.38 1.39,0.56 2.1,0.56 1.45,0 2.86,-0.75 3.64,-2.09 1.16,-2.01 0.48,-4.58 -1.53,-5.74zm56.56 95.46c-0.05,-2.32 -2.04,-4.23 -4.29,-4.1 -2.33,0.06 -4.16,1.98 -4.1,4.3 0.02,0.84 0.02,1.67 0.02,2.51 0,4.05 -0.23,8.11 -0.68,12.09 -0.27,2.3 1.38,4.39 3.69,4.65 0.16,0.02 0.32,0.03 0.48,0.03 2.1,0 3.92,-1.58 4.16,-3.72 0.5,-4.3 0.75,-8.69 0.75,-13.05 0,-0.91 -0.01,-1.81 -0.03,-2.71zm-172.74 -88.98c-1.34,-1.89 -3.95,-2.35 -5.85,-1 -3.55,2.5 -7,5.25 -10.22,8.13 -1.72,1.55 -1.88,4.2 -0.33,5.93 0.83,0.93 1.98,1.4 3.13,1.4 1,0 2,-0.35 2.8,-1.07 2.98,-2.67 6.17,-5.21 9.47,-7.54 1.89,-1.34 2.34,-3.96 1,-5.85zm141.43 13.41c-3,-3.14 -6.21,-6.14 -9.55,-8.92 -1.78,-1.48 -4.44,-1.24 -5.91,0.54 -1.48,1.79 -1.24,4.43 0.54,5.91 3.09,2.58 6.06,5.36 8.84,8.27 0.83,0.87 1.93,1.31 3.04,1.31 1.04,0 2.09,-0.39 2.9,-1.17 1.67,-1.6 1.74,-4.26 0.14,-5.94zm-13.02 157.4c-3.04,2.66 -6.26,5.15 -9.56,7.42 -1.91,1.32 -2.39,3.93 -1.08,5.84 0.82,1.19 2.13,1.82 3.47,1.82 0.82,0 1.64,-0.24 2.37,-0.73 3.56,-2.46 7.03,-5.15 10.32,-8.02 1.74,-1.53 1.92,-4.18 0.4,-5.92 -1.53,-1.75 -4.18,-1.93 -5.92,-0.41zm36.98 -52.5c-2.24,-0.65 -4.56,0.62 -5.21,2.85 -1.12,3.85 -2.49,7.69 -4.06,11.4 -0.9,2.14 0.09,4.61 2.23,5.51 0.53,0.23 1.09,0.33 1.63,0.33 1.64,0 3.19,-0.96 3.87,-2.56 1.7,-4.02 3.18,-8.17 4.39,-12.33 0.65,-2.22 -0.63,-4.55 -2.85,-5.2zm-182.73 44.94c-1.59,-1.69 -4.24,-1.79 -5.94,-0.21 -1.69,1.59 -1.78,4.25 -0.2,5.94 2.97,3.18 6.14,6.22 9.44,9.03 0.79,0.68 1.76,1.01 2.72,1.01 1.19,0 2.37,-0.5 3.19,-1.48 1.51,-1.77 1.3,-4.41 -0.47,-5.92 -3.05,-2.6 -5.99,-5.42 -8.74,-8.37zm89.8 -175.75c4.01,0.5 8.02,1.23 11.9,2.18 0.33,0.08 0.66,0.12 1,0.12 1.88,0 3.6,-1.28 4.07,-3.2 0.55,-2.25 -0.83,-4.53 -3.08,-5.08 -4.2,-1.03 -8.52,-1.82 -12.86,-2.35 -2.31,-0.32 -4.4,1.35 -4.68,3.65 -0.29,2.3 1.35,4.4 3.65,4.68zm86.99 72.31c1.22,3.82 2.22,7.77 2.99,11.72 0.39,2.01 2.15,3.4 4.12,3.4 0.27,0 0.53,-0.02 0.8,-0.08 2.28,-0.44 3.76,-2.64 3.32,-4.92 -0.82,-4.27 -1.91,-8.53 -3.23,-12.66 -0.71,-2.22 -3.07,-3.44 -5.27,-2.73 -2.21,0.7 -3.43,3.06 -2.73,5.27zm-146.97 -62.51c0.61,0 1.22,-0.13 1.8,-0.41 3.63,-1.73 7.4,-3.27 11.2,-4.57 2.19,-0.74 3.36,-3.13 2.61,-5.33 -0.74,-2.19 -3.14,-3.37 -5.32,-2.62 -4.11,1.4 -8.18,3.07 -12.1,4.94 -2.09,1 -2.98,3.51 -1.98,5.6 0.72,1.51 2.22,2.39 3.79,2.39zm140.18 46.13c0.74,1.45 2.2,2.27 3.73,2.27 0.64,0 1.31,-0.15 1.92,-0.47 2.06,-1.07 2.86,-3.6 1.79,-5.66 -1.98,-3.85 -4.23,-7.63 -6.66,-11.24 -1.3,-1.92 -3.91,-2.43 -5.83,-1.13 -1.92,1.3 -2.43,3.91 -1.13,5.83 2.25,3.34 4.33,6.84 6.18,10.4zm-110.64 -55.35c0.22,0 0.44,-0.01 0.67,-0.05 3.97,-0.64 8.02,-1.05 12.04,-1.23 2.31,-0.1 4.11,-2.06 4.01,-4.38 -0.1,-2.32 -2.21,-4.09 -4.38,-4.01 -4.34,0.2 -8.72,0.64 -13,1.33 -2.29,0.36 -3.85,2.51 -3.48,4.81 0.32,2.06 2.11,3.53 4.14,3.53zm-77.45 49.44c0.69,0.43 1.46,0.63 2.22,0.63 1.4,0 2.77,-0.7 3.56,-1.98 2.14,-3.41 4.49,-6.74 6.99,-9.87 1.44,-1.82 1.15,-4.46 -0.66,-5.91 -1.81,-1.45 -4.45,-1.14 -5.9,0.67 -2.71,3.38 -5.24,6.98 -7.55,10.67 -1.23,1.97 -0.63,4.56 1.34,5.79zm1.08 101.31c-1.05,-2.07 -3.58,-2.91 -5.64,-1.86 -2.07,1.04 -2.91,3.57 -1.86,5.64 1.95,3.88 4.14,7.68 6.53,11.31 0.81,1.23 2.15,1.89 3.51,1.89 0.79,0 1.6,-0.22 2.31,-0.69 1.93,-1.27 2.47,-3.88 1.2,-5.82 -2.21,-3.36 -4.25,-6.88 -6.05,-10.47zm-6.61 -16.46c-1.16,-3.84 -2.12,-7.8 -2.85,-11.76 -0.41,-2.29 -2.6,-3.83 -4.88,-3.38 -2.28,0.41 -3.79,2.59 -3.37,4.87 0.77,4.3 1.81,8.58 3.08,12.72 0.55,1.8 2.21,2.97 4.01,2.97 0.41,0 0.82,-0.06 1.23,-0.19 2.21,-0.67 3.46,-3.02 2.78,-5.23zm-5.86 -56.04c0.37,0.11 0.75,0.16 1.13,0.16 1.83,0 3.52,-1.21 4.03,-3.07 1.09,-3.87 2.4,-7.73 3.93,-11.45 0.88,-2.15 -0.16,-4.6 -2.3,-5.48 -2.13,-0.88 -4.6,0.15 -5.48,2.3 -1.64,4.02 -3.06,8.18 -4.23,12.37 -0.62,2.24 0.68,4.55 2.92,5.17z"/>
  <path class="fil1" d="M183.59 336.28c-1.62,-2.41 -1.62,-6.82 0,-9.24l24.1 -36.15c2.09,-3.14 2.46,-6.48 1.03,-9.18 -1.45,-2.69 -4.44,-4.24 -8.21,-4.24l-50.03 0c-2.3,0 -4.16,1.87 -4.16,4.17 0,2.3 1.86,4.17 4.16,4.17l50.03 0c0.19,0 0.36,0 0.5,0.02 -0.07,0.13 -0.15,0.27 -0.26,0.43l-24.1 36.15c-3.46,5.19 -3.46,13.32 0,18.5l24.1 36.15c0.11,0.16 0.19,0.31 0.26,0.43 -0.14,0.02 -0.31,0.03 -0.5,0.03l-87.54 0 16.68 -12.51c4.75,-3.56 8.33,-10.73 8.33,-16.67l0 -95.88c0,-6.9 -5.61,-12.51 -12.51,-12.51l-100.05 0 0 -8.34c0,-2.3 -1.86,-4.16 -4.16,-4.16 -2.31,0 -4.17,1.86 -4.17,4.16l0 216.77c0,2.31 1.86,4.17 4.17,4.17 2.3,0 4.16,-1.86 4.16,-4.17l0 -91.71 83.38 0c2.3,0 4.17,-1.86 4.17,-4.16 0,-2.31 -1.87,-4.17 -4.17,-4.17l-83.38 0 0 -100.05 100.05 0c2.3,0 4.17,1.87 4.17,4.17l0 95.88c0,3.27 -2.38,8.04 -5,10l-20.02 15.01c-4.48,3.36 -4.25,6.57 -3.71,8.19 0.54,1.61 2.28,4.31 7.89,4.31l91.71 0c3.77,0 6.76,-1.54 8.21,-4.24 1.43,-2.69 1.06,-6.03 -1.03,-9.17l-24.1 -36.16z"/>
 </g>
</svg>
