<?xml version="1.0" encoding="UTF-8"?>
<!DOCTYPE svg PUBLIC "-//W3C//DTD SVG 1.1//EN" "http://www.w3.org/Graphics/SVG/1.1/DTD/svg11.dtd">
<!-- Creator: CorelDRAW 2017 -->
<svg xmlns="http://www.w3.org/2000/svg" xml:space="preserve" width="680px" height="227px" version="1.1" style="shape-rendering:geometricPrecision; text-rendering:geometricPrecision; image-rendering:optimizeQuality; fill-rule:evenodd; clip-rule:evenodd"
viewBox="0 0 680 226.67"
 xmlns:xlink="http://www.w3.org/1999/xlink">
 <defs>
  <style type="text/css">
   <![CDATA[
    .fil0 {fill:#B7B7B7;fill-rule:nonzero}
   ]]>
  </style>
 </defs>
 <g id="Слой_x0020_1">
  <metadata id="CorelCorpID_0Corel-Layer"/>
  <path class="fil0" d="M113.12 9.12c30.47,0 55.26,24.62 55.26,54.88 0,8.13 -1.81,16.05 -5.45,23.65 -14.99,34.36 -40.75,66.92 -49.62,77.62 -8.98,-10.68 -35.12,-43.27 -50.16,-77.76 -3.51,-7.33 -5.29,-15.23 -5.29,-23.51 0,-30.26 24.79,-54.88 55.26,-54.88zm108.46 211.55l-25.01 -95.88c-0.33,-1.29 -1.26,-2.33 -2.48,-2.82l-20.85 -8.34 -3.1 7.74 18.9 7.56 22.16 84.95 -41.81 -20.9c-1.13,-0.57 -2.46,-0.59 -3.61,-0.06l-52.45 24.2 -52.44 -24.2c-1.15,-0.53 -2.48,-0.51 -3.61,0.06l-41.81 20.9 22.16 -84.95 18.89 -7.56 -3.1 -7.74 -20.84 8.34c-1.23,0.49 -2.15,1.53 -2.49,2.82l-25.01 95.88c-0.41,1.58 0.14,3.26 1.41,4.29 1.28,1.03 3.03,1.22 4.49,0.49l48.23 -24.12 52.38 24.17c1.11,0.51 2.38,0.51 3.49,0l52.37 -24.17 48.24 24.12c0.58,0.29 1.23,0.44 1.86,0.44 0.94,0 1.87,-0.32 2.63,-0.93 1.27,-1.03 1.82,-2.71 1.4,-4.29zm-108.46 -179.2c12.03,0 21.83,9.79 21.83,21.83 0,12.04 -9.8,21.83 -21.83,21.83 -12.04,0 -21.83,-9.79 -21.83,-21.83 0,-12.04 9.79,-21.83 21.83,-21.83zm0 51.99c16.63,0 30.17,-13.53 30.17,-30.16 0,-16.64 -13.54,-30.17 -30.17,-30.17 -16.64,0 -30.17,13.53 -30.17,30.17 0,16.63 13.53,30.16 30.17,30.16zm-2.9 81.01c0.79,0.88 1.93,1.39 3.11,1.39 1.21,0.07 2.34,-0.51 3.13,-1.41 1.44,-1.64 35.35,-40.46 54.06,-83.34 4.11,-8.6 6.2,-17.72 6.2,-27.11 0,-34.86 -28.53,-63.22 -63.6,-63.22 -35.07,0 -63.6,28.36 -63.6,63.22 0,9.53 2.06,18.66 6.05,26.98 18.77,43.03 53.2,81.86 54.65,83.49z"/>
  <path class="fil0" d="M666.06 196.23c-2.74,-9.02 -17.53,-16.58 -31.83,-23.89 -3.77,-1.93 -7.41,-3.78 -10.57,-5.55 -2,-1.13 -4.54,-0.41 -5.67,1.6 -1.13,2.01 -0.41,4.54 1.6,5.67 3.24,1.81 6.97,3.72 10.84,5.7 10.95,5.6 25.95,13.26 27.65,18.9 3.57,11.71 3.75,13.4 3.75,16.55 0,1.14 -0.22,1.65 -0.35,1.78 -0.82,0.8 -4.81,0.66 -7.46,0.56 -1.29,-0.04 -2.63,-0.09 -3.98,-0.09l-166.75 0c-1,0 -2.01,0.02 -2.99,0.04 -3.09,0.05 -7.33,0.14 -8.35,-0.86 -0.24,-0.24 -0.4,-0.81 -0.43,-1.59 0.33,-1.55 1.57,-7.06 4.03,-16.55 1.88,-7.3 20.42,-17.84 54.92,-31.28 0.84,-0.28 8.39,-2.91 12.56,-8.48 1.39,-1.84 1.01,-4.46 -0.83,-5.84 -1.85,-1.38 -4.45,-1.01 -5.84,0.84 -2.21,2.95 -6.92,5.03 -8.72,5.65 -27.82,10.83 -56.72,23.69 -60.17,37.01 -2.98,11.52 -4.16,17.17 -4.22,17.4 -0.05,0.28 -0.08,0.57 -0.08,0.85 0,3.35 0.99,6.02 2.94,7.94 3.51,3.45 8.76,3.34 14.34,3.25 0.93,-0.02 1.88,-0.04 2.84,-0.04l166.75 0c1.25,0 2.49,0.05 3.69,0.09 1.2,0.04 2.38,0.08 3.53,0.08 3.88,0 7.41,-0.47 10.01,-2.98 1.92,-1.85 2.9,-4.47 2.9,-7.78 0,-4.37 -0.41,-6.8 -4.11,-18.98zm-175.31 -115.02c1.44,-2.95 6.27,-5.48 9.22,-5.48l12.38 0.03c0.13,0.87 0.13,2.4 0.12,3.49l0 34.64c0.01,1.11 0.01,2.66 -0.12,3.53l-12.38 0c-2.94,0 -7.78,-2.53 -9.17,-5.38 -4.46,-9.83 -4.46,-21.11 -0.05,-30.83zm75.92 -72.18c31.5,0 57.18,26 58.26,58.36l-4.08 0c-1.91,0 -3.53,0.49 -4.86,1.42 -3.43,-17.6 -14.18,-44.49 -47.96,-44.49 -33.81,0 -45.39,27.91 -49.34,45.72 -0.13,-0.15 -0.24,-0.31 -0.39,-0.45 -1.45,-1.46 -3.41,-2.2 -5.82,-2.2l-4.07 0c1.07,-32.36 26.75,-58.36 58.26,-58.36zm75.87 72.07c4.45,9.83 4.45,21.11 0.05,30.83 -1.44,2.96 -6.28,5.49 -9.23,5.49l-12.38 -0.03c-0.13,-0.87 -0.13,-2.4 -0.12,-3.5l0 -34.63c-0.01,-1.11 -0.01,-2.67 0.13,-3.53l12.37 0c2.95,0 7.79,2.53 9.18,5.37zm-33.39 24.05c-0.59,1.08 -1.68,1.76 -2.09,1.82 -1.52,0.21 -2.8,1.24 -3.33,2.68 -2.15,5.83 -4.78,9.94 -7.56,14.29 -0.84,1.31 -1.69,2.65 -2.55,4.05 -2.52,4.15 -4.82,6.95 -7.34,8.9 -10.78,8.93 -18.4,7.86 -18.65,7.82 -0.26,-0.05 -0.52,-0.08 -0.79,-0.08 -9.52,0 -18.62,-7.35 -18.98,-7.63 -2.84,-1.97 -5.39,-4.9 -8.01,-9.2 -0.81,-1.32 -1.61,-2.58 -2.4,-3.82 -2.9,-4.54 -5.39,-8.46 -7.51,-14.36 -0.55,-1.53 -2.16,-2.61 -3.78,-2.75 -0.4,-0.04 -1.51,-0.7 -2.1,-1.78 -0.68,-1.25 -1.93,-1.94 -3.25,-2.07l0 -14.78c0.01,0 0.01,0 0.01,0 2.26,0 4,-1.27 4.05,-3.53 0.01,-0.14 0.26,-12.9 5.94,-26.11 7.33,-17.03 19.54,-25.68 36.76,-25.68 41.58,0 41.7,48.83 41.71,50.91 0,2.3 3.24,4.15 3.24,4.15l0 15.08c-1.37,0.1 -2.67,0.8 -3.37,2.09zm-10.53 66.02l-20.29 4.82c-2.21,0.51 -4.5,-0.93 -5.01,-3.09 -0.54,-2.24 0.85,-4.49 3.08,-5.02l20.28 -4.82c0.32,-0.07 0.64,-0.11 0.96,-0.11 1.91,0 3.62,1.34 4.06,3.2 0.54,2.24 -0.85,4.49 -3.08,5.02zm-98.65 -45.42l12.51 0c2.41,0 4.37,-0.73 5.83,-2.19 2.52,-2.53 2.51,-6.16 2.5,-9.68l0 -0.42c0.67,0.44 1.37,0.83 2.09,1.11 2.25,5.62 4.81,9.65 7.52,13.89 0.75,1.2 1.53,2.41 2.31,3.68 3.25,5.34 6.54,9.05 10.1,11.5 0.46,0.38 11.26,9.17 23.68,9.33 0.46,0.06 1.2,0.13 2.18,0.13 4.14,0 12.6,-1.26 22.8,-9.71 3.24,-2.5 6.18,-6.01 9.25,-11.06 0.83,-1.35 1.64,-2.64 2.46,-3.9 2.61,-4.09 5.29,-8.3 7.6,-13.97 0.59,-0.27 1.17,-0.6 1.72,-0.97l0 0.38c-0.01,3.52 -0.02,7.16 2.51,9.69 0.48,0.48 1.04,0.86 1.64,1.18 -0.28,9.81 -2.73,28.84 -11.92,32.12 -2.04,-1.41 -4.48,-2.25 -7.11,-2.25 -0.97,0 -1.94,0.11 -2.89,0.34l-20.27 4.82c-6.71,1.6 -10.87,8.35 -9.28,15.06 1.35,5.66 6.36,9.61 12.18,9.61 0.97,0 1.94,-0.11 2.89,-0.34l20.27 -4.82c6.71,-1.6 10.87,-8.35 9.28,-15.06 -0.04,-0.14 -0.1,-0.26 -0.13,-0.39 12.88,-6.63 15,-28.47 15.3,-38.08l8.37 0c5.68,0 13.76,-4.08 16.77,-10.27 5.45,-12.01 5.45,-25.79 -0.05,-37.92 -2.97,-6.09 -11.04,-10.17 -16.72,-10.17l-0.09 0c-1.09,-36.95 -30.51,-66.7 -66.6,-66.7 -36.1,0 -65.52,29.75 -66.6,66.7l-0.1 0c-5.68,0 -13.75,4.09 -16.76,10.27 -5.45,12.02 -5.45,25.8 0.05,37.94 2.96,6.07 11.03,10.15 16.71,10.15z"/>
  <g id="_1844281896832">
   <path class="fil0" d="M430.59 218.34c-2.4,0 -4.81,-0.17 -7.22,-0.17l-172.38 0c-1.15,0 -4.1,0.03 -5.39,-0.64 -0.26,-0.14 -0.69,-0.33 -0.75,-1.76 0.33,-1.54 1.57,-7.05 4.03,-16.53 2.44,-9.4 32.09,-26.21 53.34,-34.75l35.81 19.2c1.17,0.63 2.58,0.66 3.78,0.08l3.19 -1.53c-0.58,-0.88 -1.08,-1.74 -1.49,-2.55 -1.2,-1.6 -1.97,-3.23 -2.39,-4.83l-1.02 0.49 -35.65 -19.11c-1.07,-0.57 -2.34,-0.65 -3.48,-0.21 -14.28,5.55 -55.99,25.03 -60.16,41.12 -2.98,11.5 -4.17,17.13 -4.22,17.36 -0.06,0.28 -0.09,0.57 -0.09,0.86 0,5.65 2.84,8.32 5.23,9.56 4.29,2.24 10.12,1.57 14.9,1.57l166.74 0c2.41,0 4.81,0.17 7.22,0.17 3.19,0 12.91,0 12.91,-10.75 0,-4.36 -0.4,-6.79 -4.1,-18.94 -1.11,-3.64 -4.21,-7.6 -8.48,-11.61 -0.59,2.97 -2.26,5.3 -4.69,7.07 2.79,2.7 4.62,5.1 5.19,6.96 3.56,11.69 3.74,13.38 3.74,16.52 0,1.91 0,2.42 -4.57,2.42zm-134.36 -111.21c2.25,5.61 4.82,9.63 7.52,13.86 3.27,5.14 5.97,9.97 10.81,13.95 -0.2,4.1 -0.71,9.14 -1.64,12.89 -0.54,2.23 0.82,4.49 3.06,5.03 2.23,0.55 4.49,-0.81 5.04,-3.05 1.25,-5.06 1.83,-11.97 1.96,-16.76 0.04,-1.4 -0.63,-2.73 -1.79,-3.53 -4.73,-3.27 -7.4,-8.27 -10.41,-12.99 -2.89,-4.54 -5.39,-8.46 -7.51,-14.34 -0.55,-1.53 -2.15,-2.61 -3.77,-2.75 -0.41,-0.03 -1.51,-0.69 -2.1,-1.76 -4.21,-7.71 -6.01,-19.49 -5.23,-21.9 0.11,-0.07 0.58,-0.23 1.6,-0.21 2.37,0.18 4.36,-1.98 4.28,-4.31 -0.88,-23.87 7.92,-36.71 15.46,-43.28 1.52,-1.31 1.85,-3.43 0.9,-5.17 3.55,-2.39 9.53,-2.23 9.6,-2.21l0.23 -4.16 3.44 -2.35c-0.28,-0.63 0.28,-2.15 1.06,-3.54 2.37,1.97 5.53,3.38 8.49,4.2 8.56,2.37 14.77,4.81 18.63,6.5 17.76,7.03 27.44,25.26 26.52,50.02 -0.09,2.33 1.76,4.27 4.08,4.31 0.77,0.02 1.16,0.18 1.14,0.1 0.89,2.54 -0.91,14.34 -5.12,22.04 -0.59,1.09 -1.67,1.76 -2.08,1.82 -1.52,0.21 -2.81,1.24 -3.34,2.68 -0.54,1.47 -1.12,2.83 -1.72,4.11 3.85,-2.07 7.61,-1.89 10.65,-0.37 1.53,-1.08 2.88,-2.54 3.81,-4.25 4.86,-8.89 7.66,-23.16 5.66,-28.8 -0.8,-2.27 -2.44,-3.94 -4.69,-4.85 -0.04,-26.37 -11.78,-46.61 -31.7,-54.49 -3.96,-1.74 -10.57,-4.34 -19.62,-6.84 -3.97,-1.1 -5.89,-2.9 -6.08,-3.24 -0.38,-2.31 -2.63,-3.88 -4.93,-3.4 -4.49,0.89 -8.57,7.97 -9.06,12.43 -5.52,0.77 -13.25,3.42 -15.38,11.19 -0.25,0.7 -0.33,1.46 -0.2,2.18 -7.23,8.07 -14.12,21.21 -14.15,41.94 -2.53,0.85 -4.36,2.59 -5.22,5.05 -2.01,5.63 0.79,19.89 5.65,28.78 1.39,2.54 3.67,4.51 6.15,5.47z"/>
   <path class="fil0" d="M429.4 196.34c-10.08,10.08 -24,16.32 -39.35,16.32 -15.34,0 -29.26,-6.24 -39.34,-16.32 -10.08,-10.08 -16.32,-24 -16.32,-39.35 0,-15.34 6.24,-29.26 16.32,-39.34 10.08,-10.07 24,-16.32 39.34,-16.32 15.35,0 29.27,6.25 39.35,16.32 10.07,10.08 16.32,24 16.32,39.34 0,15.35 -6.24,29.27 -16.32,39.35zm-35.73 -42.83l0 -31.21c0,-2.3 -1.86,-4.16 -4.17,-4.16 -2.3,0 -4.16,1.86 -4.16,4.17l0 31.2 -31.21 0c-2.3,0 -4.17,1.86 -4.17,4.17 0,2.3 1.87,4.17 4.17,4.17l31.21 0 0 31.2c0,2.3 1.86,4.17 4.16,4.17 1.15,0 2.2,-0.47 2.95,-1.22 0.76,-0.76 1.22,-1.8 1.22,-2.95l0 -31.2 31.21 0c1.15,0 2.19,-0.47 2.94,-1.23 0.76,-0.75 1.22,-1.79 1.22,-2.94 0,-2.31 -1.86,-4.17 -4.16,-4.17l-31.21 0zm30.78 -30.91c-8.81,-8.81 -20.98,-14.27 -34.4,-14.27 -13.41,0 -25.58,5.46 -34.39,14.27 -8.81,8.81 -14.27,20.98 -14.27,34.39 0,13.42 5.46,25.59 14.27,34.4 8.81,8.81 20.98,14.27 34.39,14.27 13.42,0 25.59,-5.46 34.4,-14.27 8.81,-8.81 14.27,-20.98 14.27,-34.4 0,-13.41 -5.46,-25.58 -14.27,-34.39z"/>
  </g>
 </g>
</svg>
