<?xml version="1.0" encoding="UTF-8"?>
<!DOCTYPE svg PUBLIC "-//W3C//DTD SVG 1.1//EN" "http://www.w3.org/Graphics/SVG/1.1/DTD/svg11.dtd">
<!-- Creator: CorelDRAW 2017 -->
<svg xmlns="http://www.w3.org/2000/svg" xml:space="preserve" width="906px" height="453px" version="1.1" style="shape-rendering:geometricPrecision; text-rendering:geometricPrecision; image-rendering:optimizeQuality; fill-rule:evenodd; clip-rule:evenodd"
viewBox="0 0 906 453"
 xmlns:xlink="http://www.w3.org/1999/xlink">
 <defs>
  <style type="text/css">
   <![CDATA[
    .fil0 {fill:#E11C3A;fill-rule:nonzero}
    .fil1 {fill:white;fill-rule:nonzero}
   ]]>
  </style>
 </defs>
 <g id="Слой_x0020_1">
  <metadata id="CorelCorpID_0Corel-Layer"/>
  <path class="fil0" d="M218.17 179.9c0,6.89 -5.61,12.5 -12.5,12.5l-184.84 0c-6.89,0 -12.5,-5.61 -12.5,-12.5l0 -133.3c0,-6.89 5.61,-12.5 12.5,-12.5l184.84 0c6.89,0 12.5,5.61 12.5,12.5l0 133.3zm-104.92 -12.5c29.86,0 54.15,-24.29 54.15,-54.15 0,-29.86 -24.29,-54.15 -54.15,-54.15 -29.86,0 -54.15,24.29 -54.15,54.15 0,29.86 24.29,54.15 54.15,54.15zm0 -99.97c25.26,0 45.82,20.56 45.82,45.82 0,25.27 -20.56,45.82 -45.82,45.82 -25.26,0 -45.82,-20.55 -45.82,-45.82 0,-25.26 20.56,-45.82 45.82,-45.82zm0 79.15c18.37,0 33.33,-14.95 33.33,-33.33 0,-18.37 -14.96,-33.32 -33.33,-33.32 -3.87,0 -7.67,0.65 -11.29,1.96l2.83 7.84c2.7,-0.98 5.55,-1.47 8.46,-1.47 13.78,0 24.99,11.21 24.99,24.99 0,13.78 -11.21,24.99 -24.99,24.99 -13.78,0 -24.99,-11.21 -24.99,-24.99 0,-3.37 0.66,-6.64 1.96,-9.73l-7.67 -3.24c-1.74,4.11 -2.62,8.48 -2.62,12.97 0,18.38 14.95,33.33 33.32,33.33zm92.42 -120.81l-184.84 0c-11.49,0 -20.83,9.35 -20.83,20.83l0 133.3c0,11.48 9.34,20.83 20.83,20.83l184.84 0c11.49,0 20.83,-9.35 20.83,-20.83l0 -133.3c0,-11.48 -9.34,-20.83 -20.83,-20.83z"/>
  <path class="fil0" d="M298.09 54.93c0,-25.26 18.69,-45.82 41.66,-45.82 22.97,0 41.65,20.56 41.65,45.82l0 54.16c0,25.26 -18.68,45.82 -41.65,45.82 -22.97,0 -41.66,-20.56 -41.66,-45.82l0 -54.16zm70.82 37.49c2.3,0 4.16,-1.86 4.16,-4.16 0,-2.3 -1.86,-4.17 -4.16,-4.17l-58.32 0c-2.3,0 -4.17,1.87 -4.17,4.17 0,2.3 1.87,4.16 4.17,4.16l58.32 0zm49.99 -8.33l-16.67 0c-2.3,0 -4.16,1.87 -4.16,4.17 0,2.3 1.86,4.16 4.16,4.16l4.17 0 0 15.35c0,39.1 -30.52,72.13 -66.65,72.13 -36.13,0 -66.65,-33.03 -66.65,-72.13l0 -15.35 4.16 0c2.31,0 4.17,-1.86 4.17,-4.16 0,-2.3 -1.86,-4.17 -4.17,-4.17l-16.66 0c-2.3,0 -4.16,1.87 -4.16,4.17 0,2.3 1.86,4.16 4.16,4.16l4.17 0 0 15.35c0,42.86 31.41,77.89 70.81,80.24l0 29.38 -37.49 0c-2.3,0 -4.16,1.87 -4.16,4.17 0,2.3 1.86,4.16 4.16,4.16l83.31 0c2.31,0 4.17,-1.86 4.17,-4.16 0,-2.3 -1.86,-4.17 -4.17,-4.17l-37.49 0 0 -29.38c39.41,-2.35 70.82,-37.38 70.82,-80.24l0 -15.35 4.17 0c2.3,0 4.16,-1.86 4.16,-4.16 0,-2.3 -1.86,-4.17 -4.16,-4.17zm-79.15 79.15c27.56,0 49.99,-24.3 49.99,-54.15l0 -54.16c0,-29.86 -22.43,-54.15 -49.99,-54.15 -27.56,0 -49.99,24.29 -49.99,54.15l0 54.16c0,29.85 22.43,54.15 49.99,54.15z"/>
  <path class="fil0" d="M503.04 216.34c-12.27,0 -23.78,-4.75 -32.4,-13.37 -8.62,-8.62 -13.37,-20.13 -13.37,-32.4 0,-12.28 4.75,-23.78 13.37,-32.4l110.2 -110.21c1.63,-1.62 4.27,-1.62 5.89,0 1.63,1.63 1.63,4.27 0,5.89l-110.2 110.21c-7.04,7.05 -10.93,16.46 -10.93,26.51 0,10.04 3.89,19.46 10.93,26.51 7.06,7.05 16.47,10.93 26.51,10.93 10.05,0 19.46,-3.88 26.51,-10.93l127.88 -127.88c6.63,-6.63 9.89,-14.2 9.42,-21.88 -0.42,-6.83 -3.77,-13.7 -9.42,-19.36 -5.66,-5.65 -12.53,-9 -19.35,-9.42 -7.73,-0.52 -15.26,2.79 -21.89,9.42l-98.42 98.42c-4.6,4.6 -6.85,9.99 -6.52,15.59 0.29,5.04 2.61,9.96 6.52,13.87 3.91,3.91 8.83,6.23 13.87,6.52 5.62,0.31 10.99,-1.93 15.59,-6.52l77.8 -77.8c1.63,-1.63 4.26,-1.63 5.89,0 1.63,1.63 1.63,4.26 0,5.89l-77.8 77.8c-6.33,6.33 -14,9.42 -21.97,8.95 -7.08,-0.42 -13.92,-3.6 -19.27,-8.95 -5.35,-5.36 -8.53,-12.19 -8.95,-19.27 -0.47,-8.05 2.62,-15.64 8.95,-21.97l98.42 -98.42c8.38,-8.37 18.16,-12.49 28.28,-11.84 8.86,0.54 17.65,4.75 24.74,11.84 7.09,7.09 11.3,15.88 11.85,24.74 0.62,10.13 -3.48,19.91 -11.85,28.28l-127.88 127.88c-8.62,8.62 -20.12,13.37 -32.4,13.37z"/>
  <path class="fil0" d="M896.89 179.9c0,6.89 -5.61,12.5 -12.5,12.5l-183.28 0c-6.89,0 -12.5,-5.61 -12.5,-12.5l0 -133.3c0,-6.89 5.61,-12.5 12.5,-12.5l183.28 0c6.89,0 12.5,5.61 12.5,12.5l0 133.3zm-15.22 -136.45l-79.03 68.25c-5.36,4.63 -14.42,4.63 -19.78,0l-79.03 -68.25c-1.74,-1.5 -4.37,-1.32 -5.88,0.43 -1.5,1.74 -1.3,4.37 0.44,5.87l79.03 68.26c4.22,3.65 9.78,5.47 15.33,5.47 5.55,0 11.11,-1.82 15.33,-5.47l79.03 -68.26c1.74,-1.5 1.94,-4.13 0.44,-5.87 -1.52,-1.75 -4.15,-1.93 -5.88,-0.43zm2.72 -17.68l-183.28 0c-11.49,0 -20.83,9.35 -20.83,20.83l0 133.3c0,11.48 9.34,20.83 20.83,20.83l183.28 0c11.49,0 20.83,-9.35 20.83,-20.83l0 -133.3c0,-11.48 -9.34,-20.83 -20.83,-20.83z"/>
  <path class="fil1" d="M218.17 406.4c0,6.89 -5.61,12.5 -12.5,12.5l-184.84 0c-6.89,0 -12.5,-5.61 -12.5,-12.5l0 -133.3c0,-6.89 5.61,-12.5 12.5,-12.5l184.84 0c6.89,0 12.5,5.61 12.5,12.5l0 133.3zm-104.92 -12.5c29.86,0 54.15,-24.29 54.15,-54.15 0,-29.86 -24.29,-54.15 -54.15,-54.15 -29.86,0 -54.15,24.29 -54.15,54.15 0,29.86 24.29,54.15 54.15,54.15zm0 -99.97c25.26,0 45.82,20.56 45.82,45.82 0,25.27 -20.56,45.82 -45.82,45.82 -25.26,0 -45.82,-20.55 -45.82,-45.82 0,-25.26 20.56,-45.82 45.82,-45.82zm0 79.15c18.37,0 33.33,-14.95 33.33,-33.33 0,-18.37 -14.96,-33.32 -33.33,-33.32 -3.87,0 -7.67,0.65 -11.29,1.96l2.83 7.84c2.7,-0.98 5.55,-1.47 8.46,-1.47 13.78,0 24.99,11.21 24.99,24.99 0,13.78 -11.21,24.99 -24.99,24.99 -13.78,0 -24.99,-11.21 -24.99,-24.99 0,-3.37 0.66,-6.64 1.96,-9.73l-7.67 -3.24c-1.74,4.11 -2.62,8.48 -2.62,12.97 0,18.38 14.95,33.33 33.32,33.33zm92.42 -120.81l-184.84 0c-11.49,0 -20.83,9.35 -20.83,20.83l0 133.3c0,11.48 9.34,20.83 20.83,20.83l184.84 0c11.49,0 20.83,-9.35 20.83,-20.83l0 -133.3c0,-11.48 -9.34,-20.83 -20.83,-20.83z"/>
  <path class="fil1" d="M298.09 281.43c0,-25.26 18.69,-45.82 41.66,-45.82 22.97,0 41.65,20.56 41.65,45.82l0 54.16c0,25.26 -18.68,45.82 -41.65,45.82 -22.97,0 -41.66,-20.56 -41.66,-45.82l0 -54.16zm70.82 37.49c2.3,0 4.16,-1.86 4.16,-4.16 0,-2.3 -1.86,-4.17 -4.16,-4.17l-58.32 0c-2.3,0 -4.17,1.87 -4.17,4.17 0,2.3 1.87,4.16 4.17,4.16l58.32 0zm49.99 -8.33l-16.67 0c-2.3,0 -4.16,1.87 -4.16,4.17 0,2.3 1.86,4.16 4.16,4.16l4.17 0 0 15.35c0,39.1 -30.52,72.13 -66.65,72.13 -36.13,0 -66.65,-33.03 -66.65,-72.13l0 -15.35 4.16 0c2.31,0 4.17,-1.86 4.17,-4.16 0,-2.3 -1.86,-4.17 -4.17,-4.17l-16.66 0c-2.3,0 -4.16,1.87 -4.16,4.17 0,2.3 1.86,4.16 4.16,4.16l4.17 0 0 15.35c0,42.86 31.41,77.89 70.81,80.24l0 29.38 -37.49 0c-2.3,0 -4.16,1.87 -4.16,4.17 0,2.3 1.86,4.16 4.16,4.16l83.31 0c2.31,0 4.17,-1.86 4.17,-4.16 0,-2.3 -1.86,-4.17 -4.17,-4.17l-37.49 0 0 -29.38c39.41,-2.35 70.82,-37.38 70.82,-80.24l0 -15.35 4.17 0c2.3,0 4.16,-1.86 4.16,-4.16 0,-2.3 -1.86,-4.17 -4.16,-4.17zm-79.15 79.15c27.56,0 49.99,-24.3 49.99,-54.15l0 -54.16c0,-29.86 -22.43,-54.15 -49.99,-54.15 -27.56,0 -49.99,24.29 -49.99,54.15l0 54.16c0,29.85 22.43,54.15 49.99,54.15z"/>
  <path class="fil1" d="M503.04 442.84c-12.27,0 -23.78,-4.75 -32.4,-13.37 -8.62,-8.62 -13.37,-20.13 -13.37,-32.4 0,-12.28 4.75,-23.78 13.37,-32.4l110.2 -110.21c1.63,-1.62 4.27,-1.62 5.89,0 1.63,1.63 1.63,4.27 0,5.89l-110.2 110.21c-7.04,7.05 -10.93,16.46 -10.93,26.51 0,10.04 3.89,19.46 10.93,26.51 7.06,7.05 16.47,10.93 26.51,10.93 10.05,0 19.46,-3.88 26.51,-10.93l127.88 -127.88c6.63,-6.63 9.89,-14.2 9.42,-21.88 -0.42,-6.83 -3.77,-13.7 -9.42,-19.36 -5.66,-5.65 -12.53,-9 -19.35,-9.42 -7.73,-0.52 -15.26,2.79 -21.89,9.42l-98.42 98.42c-4.6,4.6 -6.85,9.99 -6.52,15.59 0.29,5.04 2.61,9.96 6.52,13.87 3.91,3.91 8.83,6.23 13.87,6.52 5.62,0.31 10.99,-1.93 15.59,-6.52l77.8 -77.8c1.63,-1.63 4.26,-1.63 5.89,0 1.63,1.63 1.63,4.26 0,5.89l-77.8 77.8c-6.33,6.33 -14,9.42 -21.97,8.95 -7.08,-0.42 -13.92,-3.6 -19.27,-8.95 -5.35,-5.36 -8.53,-12.19 -8.95,-19.27 -0.47,-8.05 2.62,-15.64 8.95,-21.97l98.42 -98.42c8.38,-8.37 18.16,-12.49 28.28,-11.84 8.86,0.54 17.65,4.75 24.74,11.84 7.09,7.09 11.3,15.88 11.85,24.74 0.62,10.13 -3.48,19.91 -11.85,28.28l-127.88 127.88c-8.62,8.62 -20.12,13.37 -32.4,13.37z"/>
  <path class="fil1" d="M896.89 406.4c0,6.89 -5.61,12.5 -12.5,12.5l-183.28 0c-6.89,0 -12.5,-5.61 -12.5,-12.5l0 -133.3c0,-6.89 5.61,-12.5 12.5,-12.5l183.28 0c6.89,0 12.5,5.61 12.5,12.5l0 133.3zm-15.22 -136.45l-79.03 68.25c-5.36,4.63 -14.42,4.63 -19.78,0l-79.03 -68.25c-1.74,-1.5 -4.37,-1.32 -5.88,0.43 -1.5,1.74 -1.3,4.37 0.44,5.87l79.03 68.26c4.22,3.65 9.78,5.47 15.33,5.47 5.55,0 11.11,-1.82 15.33,-5.47l79.03 -68.26c1.74,-1.5 1.94,-4.13 0.44,-5.87 -1.52,-1.75 -4.15,-1.93 -5.88,-0.43zm2.72 -17.68l-183.28 0c-11.49,0 -20.83,9.35 -20.83,20.83l0 133.3c0,11.48 9.34,20.83 20.83,20.83l183.28 0c11.49,0 20.83,-9.35 20.83,-20.83l0 -133.3c0,-11.48 -9.34,-20.83 -20.83,-20.83z"/>
 </g>
</svg>
